<svg width="178" height="48" viewBox="0 0 178 48" fill="none" xmlns="http://www.w3.org/2000/svg">
<path d="M58.7403 23.5313C58.7403 21.4027 59.2156 19.5013 60.1663 17.8273C61.1376 16.1327 62.4499 14.8203 64.1033 13.8903C65.7773 12.9397 67.6476 12.4643 69.7143 12.4643C72.1323 12.4643 74.2506 13.0843 76.0693 14.3243C77.8879 15.5643 79.1589 17.2797 79.8823 19.4703H74.8913C74.3953 18.437 73.6926 17.662 72.7833 17.1453C71.8946 16.6287 70.8613 16.3703 69.6833 16.3703C68.4226 16.3703 67.2963 16.67 66.3043 17.2693C65.3329 17.848 64.5683 18.6747 64.0103 19.7493C63.4729 20.824 63.2043 22.0847 63.2043 23.5313C63.2043 24.9573 63.4729 26.218 64.0103 27.3133C64.5683 28.388 65.3329 29.225 66.3043 29.8243C67.2963 30.403 68.4226 30.6923 69.6833 30.6923C70.8613 30.6923 71.8946 30.434 72.7833 29.9173C73.6926 29.38 74.3953 28.5947 74.8913 27.5613H79.8823C79.1589 29.7727 77.8879 31.4983 76.0693 32.7383C74.2713 33.9577 72.1529 34.5673 69.7143 34.5673C67.6476 34.5673 65.7773 34.1023 64.1033 33.1723C62.4499 32.2217 61.1376 30.9093 60.1663 29.2353C59.2156 27.5613 58.7403 25.66 58.7403 23.5313ZM91.2152 34.6603C89.5619 34.6603 88.0739 34.2987 86.7512 33.5753C85.4285 32.8313 84.3849 31.7877 83.6202 30.4443C82.8762 29.101 82.5042 27.551 82.5042 25.7943C82.5042 24.0377 82.8865 22.4877 83.6512 21.1443C84.4365 19.801 85.5009 18.7677 86.8442 18.0443C88.1875 17.3003 89.6859 16.9283 91.3392 16.9283C92.9925 16.9283 94.4909 17.3003 95.8342 18.0443C97.1775 18.7677 98.2315 19.801 98.9962 21.1443C99.7815 22.4877 100.174 24.0377 100.174 25.7943C100.174 27.551 99.7712 29.101 98.9652 30.4443C98.1799 31.7877 97.1052 32.8313 95.7412 33.5753C94.3979 34.2987 92.8892 34.6603 91.2152 34.6603ZM91.2152 30.8783C92.0005 30.8783 92.7342 30.6923 93.4162 30.3203C94.1189 29.9277 94.6769 29.349 95.0902 28.5843C95.5035 27.8197 95.7102 26.8897 95.7102 25.7943C95.7102 24.1617 95.2762 22.9113 94.4082 22.0433C93.5609 21.1547 92.5172 20.7103 91.2772 20.7103C90.0372 20.7103 88.9935 21.1547 88.1462 22.0433C87.3195 22.9113 86.9062 24.1617 86.9062 25.7943C86.9062 27.427 87.3092 28.6877 88.1152 29.5763C88.9419 30.4443 89.9752 30.8783 91.2152 30.8783ZM107.698 19.8733C108.256 18.964 108.979 18.251 109.868 17.7343C110.777 17.2177 111.81 16.9593 112.968 16.9593V21.5163H111.821C110.457 21.5163 109.423 21.8367 108.721 22.4773C108.039 23.118 107.698 24.234 107.698 25.8253V34.3813H103.358V17.2073H107.698V19.8733ZM131.856 25.4223C131.856 26.0423 131.815 26.6003 131.732 27.0963H119.177C119.28 28.3363 119.714 29.3077 120.479 30.0103C121.244 30.713 122.184 31.0643 123.3 31.0643C124.912 31.0643 126.059 30.372 126.741 28.9873H131.422C130.926 30.6407 129.975 32.0047 128.57 33.0793C127.165 34.1333 125.439 34.6603 123.393 34.6603C121.74 34.6603 120.252 34.2987 118.929 33.5753C117.627 32.8313 116.604 31.7877 115.86 30.4443C115.137 29.101 114.775 27.551 114.775 25.7943C114.775 24.017 115.137 22.4567 115.86 21.1133C116.583 19.77 117.596 18.7367 118.898 18.0133C120.2 17.29 121.698 16.9283 123.393 16.9283C125.026 16.9283 126.483 17.2797 127.764 17.9823C129.066 18.685 130.068 19.6873 130.771 20.9893C131.494 22.2707 131.856 23.7483 131.856 25.4223ZM127.361 24.1823C127.34 23.0663 126.937 22.1777 126.152 21.5163C125.367 20.8343 124.406 20.4933 123.269 20.4933C122.194 20.4933 121.285 20.824 120.541 21.4853C119.818 22.126 119.373 23.025 119.208 24.1823H127.361ZM141.596 34.6603C140.19 34.6603 138.93 34.4123 137.814 33.9163C136.698 33.3997 135.809 32.7073 135.148 31.8393C134.507 30.9713 134.156 30.0103 134.094 28.9563H138.465C138.547 29.6177 138.868 30.1653 139.426 30.5993C140.004 31.0333 140.717 31.2503 141.565 31.2503C142.391 31.2503 143.032 31.085 143.487 30.7543C143.962 30.4237 144.2 30 144.2 29.4833C144.2 28.9253 143.91 28.512 143.332 28.2433C142.774 27.954 141.875 27.644 140.635 27.3133C139.353 27.0033 138.299 26.683 137.473 26.3523C136.667 26.0217 135.964 25.5153 135.365 24.8333C134.786 24.1513 134.497 23.2317 134.497 22.0743C134.497 21.1237 134.765 20.2557 135.303 19.4703C135.861 18.685 136.646 18.065 137.659 17.6103C138.692 17.1557 139.901 16.9283 141.286 16.9283C143.332 16.9283 144.964 17.445 146.184 18.4783C147.403 19.491 148.075 20.8653 148.199 22.6013H144.045C143.983 21.9193 143.693 21.382 143.177 20.9893C142.681 20.576 142.009 20.3693 141.162 20.3693C140.376 20.3693 139.767 20.514 139.333 20.8033C138.919 21.0927 138.713 21.4957 138.713 22.0123C138.713 22.591 139.002 23.0353 139.581 23.3453C140.159 23.6347 141.058 23.9343 142.278 24.2443C143.518 24.5543 144.541 24.8747 145.347 25.2053C146.153 25.536 146.845 26.0527 147.424 26.7553C148.023 27.4373 148.333 28.3467 148.354 29.4833C148.354 30.4753 148.075 31.364 147.517 32.1493C146.979 32.9347 146.194 33.5547 145.161 34.0093C144.148 34.4433 142.96 34.6603 141.596 34.6603ZM156.256 11.4413V34.3813H151.916V11.4413H156.256ZM176.974 17.2073L166.341 42.5033H161.722L165.442 33.9473L158.56 17.2073H163.427L167.86 29.2043L172.355 17.2073H176.974Z" fill="#201F23"/>
<path fill-rule="evenodd" clip-rule="evenodd" d="M44.6553 22.6904C44.6553 34.8612 34.7889 44.7275 22.6181 44.7275C11.061 44.7275 1.58184 35.8311 0.655264 24.5129L10.9714 24.5129C11.7754 30.1337 16.6094 34.4545 22.4525 34.4545C28.8582 34.4545 34.051 29.2617 34.051 22.856C34.051 16.5612 29.0363 11.4376 22.7838 11.2622L22.7838 0.653856C34.8783 0.742936 44.6553 10.5749 44.6553 22.6904Z" fill="#263CFF"/>
<circle cx="22.6553" cy="22.7276" r="7.11765" transform="rotate(180 22.6553 22.7276)" fill="#263CFF"/>
</svg>
